<mxfile host="app.diagrams.net" agent="Mozilla/5.0 (Windows NT 10.0; Win64; x64) AppleWebKit/537.36 (KHTML, like Gecko) Chrome/134.0.0.0 Safari/537.36" version="26.1.2">
  <diagram name="Page-1" id="-YsgHX1rWP6CS0yUM8W-">
    <mxGraphModel dx="1434" dy="818" grid="1" gridSize="10" guides="1" tooltips="1" connect="1" arrows="1" fold="1" page="1" pageScale="1" pageWidth="850" pageHeight="1100" math="0" shadow="0">
      <root>
        <mxCell id="0" />
        <mxCell id="1" parent="0" />
        <mxCell id="lsaSg4U5N68tIXGt_wPY-4" value="Internet" style="image;aspect=fixed;perimeter=ellipsePerimeter;html=1;align=center;shadow=0;dashed=0;spacingTop=3;image=img/lib/active_directory/internet_cloud.svg;" vertex="1" parent="1">
          <mxGeometry x="100" y="235" width="79.37" height="50" as="geometry" />
        </mxCell>
        <mxCell id="lsaSg4U5N68tIXGt_wPY-5" value="&lt;font style=&quot;color: rgb(0, 0, 0);&quot;&gt;Firewall&lt;br&gt;&lt;div style=&quot;text-align: center;&quot;&gt;&lt;span style=&quot;background-color: light-dark(#ffffff, var(--ge-dark-color, #121212)); color: light-dark(rgb(0, 0, 0), rgb(237, 237, 237)); font-family: var(--ds-font-family-code); font-size: 12.573px; text-align: start; text-wrap-mode: wrap;&quot;&gt;UFW/iptables&lt;/span&gt;&lt;/div&gt;&lt;/font&gt;" style="image;html=1;image=img/lib/clip_art/networking/Firewall_02_128x128.png" vertex="1" parent="1">
          <mxGeometry x="240" y="220" width="80" height="80" as="geometry" />
        </mxCell>
        <mxCell id="lsaSg4U5N68tIXGt_wPY-8" style="edgeStyle=orthogonalEdgeStyle;rounded=0;orthogonalLoop=1;jettySize=auto;html=1;entryX=0.125;entryY=0.5;entryDx=0;entryDy=0;entryPerimeter=0;shape=link;" edge="1" parent="1" source="lsaSg4U5N68tIXGt_wPY-4" target="lsaSg4U5N68tIXGt_wPY-5">
          <mxGeometry relative="1" as="geometry" />
        </mxCell>
        <mxCell id="lsaSg4U5N68tIXGt_wPY-24" style="edgeStyle=orthogonalEdgeStyle;rounded=0;orthogonalLoop=1;jettySize=auto;html=1;shape=link;" edge="1" parent="1" source="lsaSg4U5N68tIXGt_wPY-9" target="lsaSg4U5N68tIXGt_wPY-12">
          <mxGeometry relative="1" as="geometry" />
        </mxCell>
        <mxCell id="lsaSg4U5N68tIXGt_wPY-28" style="edgeStyle=orthogonalEdgeStyle;rounded=0;orthogonalLoop=1;jettySize=auto;html=1;shape=link;" edge="1" parent="1" source="lsaSg4U5N68tIXGt_wPY-9" target="lsaSg4U5N68tIXGt_wPY-21">
          <mxGeometry relative="1" as="geometry" />
        </mxCell>
        <mxCell id="lsaSg4U5N68tIXGt_wPY-9" value="Tpot host" style="image;aspect=fixed;html=1;points=[];align=center;fontSize=12;image=img/lib/azure2/compute/Host_Pools.svg;" vertex="1" parent="1">
          <mxGeometry x="440" y="224" width="68" height="68" as="geometry" />
        </mxCell>
        <mxCell id="lsaSg4U5N68tIXGt_wPY-10" style="edgeStyle=orthogonalEdgeStyle;rounded=0;orthogonalLoop=1;jettySize=auto;html=1;entryX=-0.015;entryY=0.529;entryDx=0;entryDy=0;entryPerimeter=0;shape=link;" edge="1" parent="1" source="lsaSg4U5N68tIXGt_wPY-5" target="lsaSg4U5N68tIXGt_wPY-9">
          <mxGeometry relative="1" as="geometry" />
        </mxCell>
        <mxCell id="lsaSg4U5N68tIXGt_wPY-27" style="rounded=0;orthogonalLoop=1;jettySize=auto;html=1;shape=link;" edge="1" parent="1" source="lsaSg4U5N68tIXGt_wPY-12" target="lsaSg4U5N68tIXGt_wPY-19">
          <mxGeometry relative="1" as="geometry" />
        </mxCell>
        <mxCell id="lsaSg4U5N68tIXGt_wPY-18" value="Cyberchef" style="image;aspect=fixed;html=1;points=[];align=center;fontSize=12;image=img/lib/azure2/analytics/Analysis_Services.svg;" vertex="1" parent="1">
          <mxGeometry x="623.5" y="391" width="63" height="48" as="geometry" />
        </mxCell>
        <mxCell id="lsaSg4U5N68tIXGt_wPY-19" value="&lt;div&gt;Cowrie&lt;/div&gt;" style="image;html=1;image=img/lib/clip_art/computers/Software_128x128.png" vertex="1" parent="1">
          <mxGeometry x="740" y="380" width="65" height="70" as="geometry" />
        </mxCell>
        <mxCell id="lsaSg4U5N68tIXGt_wPY-23" value="Admin&lt;br&gt;SSH" style="sketch=0;html=1;aspect=fixed;strokeColor=none;shadow=0;fillColor=#3B8DF1;verticalAlign=top;labelPosition=center;verticalLabelPosition=bottom;shape=mxgraph.gcp2.connected" vertex="1" parent="1">
          <mxGeometry x="623.5" y="60" width="83.33" height="60" as="geometry" />
        </mxCell>
        <mxCell id="lsaSg4U5N68tIXGt_wPY-25" style="rounded=0;orthogonalLoop=1;jettySize=auto;html=1;entryX=0.561;entryY=0.14;entryDx=0;entryDy=0;entryPerimeter=0;shape=link;" edge="1" parent="1" source="lsaSg4U5N68tIXGt_wPY-12" target="lsaSg4U5N68tIXGt_wPY-17">
          <mxGeometry relative="1" as="geometry">
            <Array as="points">
              <mxPoint x="590" y="340" />
            </Array>
          </mxGeometry>
        </mxCell>
        <mxCell id="lsaSg4U5N68tIXGt_wPY-17" value="Elk Stack" style="sketch=0;pointerEvents=1;shadow=0;dashed=0;html=1;strokeColor=none;labelPosition=center;verticalLabelPosition=bottom;verticalAlign=top;align=center;fillColor=#505050;shape=mxgraph.mscae.oms.log_management" vertex="1" parent="1">
          <mxGeometry x="520" y="391" width="41" height="50" as="geometry" />
        </mxCell>
        <mxCell id="lsaSg4U5N68tIXGt_wPY-26" style="edgeStyle=orthogonalEdgeStyle;rounded=0;orthogonalLoop=1;jettySize=auto;html=1;entryX=0.5;entryY=-0.021;entryDx=0;entryDy=0;entryPerimeter=0;shape=link;" edge="1" parent="1" source="lsaSg4U5N68tIXGt_wPY-12" target="lsaSg4U5N68tIXGt_wPY-18">
          <mxGeometry relative="1" as="geometry" />
        </mxCell>
        <mxCell id="lsaSg4U5N68tIXGt_wPY-12" value="Docker Network" style="shape=image;html=1;verticalAlign=top;verticalLabelPosition=bottom;labelBackgroundColor=#ffffff;imageAspect=0;aspect=fixed;image=https://cdn1.iconfinder.com/data/icons/unicons-line-vol-3/24/docker-128.png" vertex="1" parent="1">
          <mxGeometry x="620" y="223" width="70" height="70" as="geometry" />
        </mxCell>
        <mxCell id="lsaSg4U5N68tIXGt_wPY-29" style="rounded=0;orthogonalLoop=1;jettySize=auto;html=1;entryX=0.078;entryY=0.692;entryDx=0;entryDy=0;entryPerimeter=0;shape=link;edgeStyle=orthogonalEdgeStyle;" edge="1" parent="1" source="lsaSg4U5N68tIXGt_wPY-21" target="lsaSg4U5N68tIXGt_wPY-23">
          <mxGeometry relative="1" as="geometry" />
        </mxCell>
        <mxCell id="lsaSg4U5N68tIXGt_wPY-21" value="&lt;span style=&quot;background-color: light-dark(#ffffff, var(--ge-dark-color, #121212));&quot;&gt;Management interface&lt;/span&gt;" style="outlineConnect=0;dashed=0;verticalLabelPosition=bottom;verticalAlign=top;align=center;html=1;shape=mxgraph.aws3.management_console;fillColor=#F58534;gradientColor=none;" vertex="1" parent="1">
          <mxGeometry x="442.5" y="70" width="63" height="63" as="geometry" />
        </mxCell>
      </root>
    </mxGraphModel>
  </diagram>
</mxfile>
